<svg width="161" height="161" viewBox="0 0 161 161" fill="none" xmlns="http://www.w3.org/2000/svg">
<g filter="url(#filter0_d_369_73)">
<rect x="27.8898" y="35.0662" width="84.9801" height="84.9801" rx="17.9958" transform="rotate(-15.7613 27.8898 35.0662)" fill="url(#paint0_linear_369_73)"/>
</g>
<g clip-path="url(#clip0_369_73)">
<path fill-rule="evenodd" clip-rule="evenodd" d="M92.4579 48.3107C92.9582 48.1788 93.4712 48.4777 93.6031 48.978C93.735 49.4783 93.4361 49.9914 92.9358 50.1233L84.153 52.4388C81.1223 53.2378 79.7127 55.8376 80.5634 59.064L83.1382 68.8304C84 72.0992 86.4469 73.6253 89.5248 72.8139L99.922 70.0727C102.953 69.2737 104.363 66.6776 103.515 63.4584L101.272 54.9523C101.14 54.452 101.439 53.939 101.939 53.8071C102.44 53.6752 102.953 53.9742 103.085 54.4744L105.327 62.9805C106.449 67.2341 104.469 70.8126 100.4 71.8853L90.0027 74.6265C85.9339 75.6992 82.447 73.5619 81.3256 69.3083L78.7507 59.5419C77.6277 55.2823 79.6064 51.6989 83.6751 50.6262L92.4579 48.3107ZM97.1901 55.8899C97.6674 56.0924 97.8899 56.6424 97.6872 57.1185L95.3508 62.6198C95.2537 62.8496 95.069 63.0314 94.8374 63.1235C94.6043 63.2198 94.3466 63.2128 94.1164 63.1145L90.0058 61.3369L87.9951 66.1177C87.8774 66.3969 87.6413 66.5896 87.3695 66.6613C87.1761 66.7123 86.9653 66.702 86.7678 66.6196C86.2909 66.4184 86.0659 65.869 86.2671 65.392L88.6446 59.7377C88.7413 59.5067 88.9273 59.3246 89.1586 59.2313C89.3944 59.1355 89.6515 59.1401 89.881 59.2412L93.9944 61.0194L95.9615 56.387C96.1636 55.9085 96.7122 55.6851 97.1901 55.8899ZM98.3167 45.6777C100.098 45.2081 101.927 46.2741 102.397 48.0553C102.867 49.8365 101.801 51.667 100.02 52.1366C98.2396 52.6059 96.4087 51.539 95.9391 49.7578C95.4695 47.9766 96.5368 46.1469 98.3167 45.6777ZM98.7946 47.4903C98.014 47.6961 97.5456 48.4981 97.7518 49.2799C97.9576 50.0606 98.7611 50.5298 99.5417 50.324C100.322 50.1182 100.79 49.3138 100.584 48.5332C100.378 47.7513 99.5753 47.2845 98.7946 47.4903Z" fill="white"/>
</g>
<defs>
<filter id="filter0_d_369_73" x="0.104248" y="0.193817" width="160.439" height="160.439" filterUnits="userSpaceOnUse" color-interpolation-filters="sRGB">
<feFlood flood-opacity="0" result="BackgroundImageFix"/>
<feColorMatrix in="SourceAlpha" type="matrix" values="0 0 0 0 0 0 0 0 0 0 0 0 0 0 0 0 0 0 127 0" result="hardAlpha"/>
<feOffset dy="15.9962"/>
<feGaussianBlur stdDeviation="15.9962"/>
<feComposite in2="hardAlpha" operator="out"/>
<feColorMatrix type="matrix" values="0 0 0 0 0.603922 0 0 0 0 0.690196 0 0 0 0 0.0509804 0 0 0 0.22 0"/>
<feBlend mode="normal" in2="BackgroundImageFix" result="effect1_dropShadow_369_73"/>
<feBlend mode="normal" in="SourceGraphic" in2="effect1_dropShadow_369_73" result="shape"/>
</filter>
<linearGradient id="paint0_linear_369_73" x1="57.8827" y1="162.536" x2="137.533" y2="128.03" gradientUnits="userSpaceOnUse">
<stop stop-color="#D7C237"/>
<stop offset="1" stop-color="#F6931C"/>
</linearGradient>
<clipPath id="clip0_369_73">
<rect width="29.993" height="29.993" fill="white" transform="translate(73.5507 49.6223) rotate(-14.7696)"/>
</clipPath>
</defs>
</svg>
