<svg width="676" height="695" viewBox="0 0 676 695" fill="none" xmlns="http://www.w3.org/2000/svg">
<path opacity="0.0416667" fill-rule="evenodd" clip-rule="evenodd" d="M238.927 235.694C240.313 208.016 261.202 186.748 281.748 168.152C307.096 145.21 335.175 108.172 367.489 119.337C400.28 130.667 387.61 182.529 406.871 211.384C426.099 240.189 477.862 248.298 476.677 282.911C475.502 317.234 432.712 332.547 402.185 348.28C376.048 361.751 346.292 374.808 318.849 364.253C293.571 354.532 289.476 322.437 275.178 299.436C261.762 277.856 237.657 261.072 238.927 235.694Z" stroke="white" stroke-opacity="0.1" stroke-width="0.999765"/>
<path opacity="0.0833333" fill-rule="evenodd" clip-rule="evenodd" d="M247.915 235.223C251.707 207.771 274.37 188.404 296.459 171.67C323.711 151.025 354.91 116.575 386.128 130.514C417.807 144.659 400.665 195.219 417.338 225.643C433.983 256.014 484.842 268.604 480.645 302.981C476.483 337.071 432.521 348.597 400.738 361.61C373.527 372.751 342.747 383.165 316.327 370.259C291.993 358.371 290.711 326.042 278.472 301.882C266.988 279.215 244.438 260.394 247.915 235.223Z" stroke="white" stroke-opacity="0.1" stroke-width="0.999765"/>
<path opacity="0.125" fill-rule="evenodd" clip-rule="evenodd" d="M256.661 235.564C262.832 208.548 287.097 191.23 310.56 176.484C339.507 158.292 373.59 126.693 403.475 143.3C433.8 160.152 412.317 209.026 426.275 240.787C440.209 272.493 489.778 289.468 482.6 323.349C475.483 356.946 430.683 364.596 397.888 374.79C369.809 383.517 338.238 391.209 313.044 376.049C289.838 362.086 291.38 329.767 281.292 304.633C271.828 281.051 251.004 260.337 256.661 235.564Z" stroke="white" stroke-opacity="0.1" stroke-width="0.999765"/>
<path opacity="0.166667" fill-rule="evenodd" clip-rule="evenodd" d="M265.096 236.694C273.597 210.318 299.279 195.18 323.939 182.536C354.361 166.937 391.068 138.428 419.392 157.576C448.133 177.007 422.472 223.823 433.609 256.68C444.726 289.48 492.627 310.709 482.524 343.836C472.505 376.685 427.21 380.402 393.651 387.698C364.918 393.945 332.797 398.856 309.02 381.558C287.119 365.626 291.472 333.564 283.613 307.647C276.24 283.33 257.3 260.879 265.096 236.694Z" stroke="white" stroke-opacity="0.1" stroke-width="0.999765"/>
<path opacity="0.208333" fill-rule="evenodd" clip-rule="evenodd" d="M273.152 238.582C283.92 213.047 310.824 200.206 336.491 189.758C368.157 176.87 407.21 151.669 433.756 173.213C460.695 195.075 431.051 239.476 439.282 273.178C447.498 306.823 493.366 332.146 480.415 364.266C467.571 396.117 422.124 395.872 388.057 400.216C358.889 403.934 326.462 406.027 304.283 386.723C283.855 368.942 290.985 337.382 285.415 310.878C280.189 286.011 263.279 261.995 273.152 238.582Z" stroke="white" stroke-opacity="0.1" stroke-width="0.999765"/>
<path opacity="0.25" fill-rule="evenodd" clip-rule="evenodd" d="M280.765 241.192C293.717 216.693 321.638 206.245 348.118 198.075C380.787 187.995 421.887 166.294 446.455 190.07C471.386 214.196 437.985 255.844 443.247 290.136C448.5 324.368 491.987 353.593 476.285 384.462C460.714 415.073 415.461 410.867 381.145 412.225C351.765 413.388 319.279 412.646 298.866 391.483C280.065 371.989 289.919 341.171 286.68 314.282C283.642 289.054 268.889 263.656 280.765 241.192Z" stroke="white" stroke-opacity="0.1" stroke-width="0.999765"/>
<path opacity="0.291667" fill-rule="evenodd" clip-rule="evenodd" d="M287.873 244.482C302.911 221.206 331.636 213.231 358.728 207.4C392.151 200.206 434.986 182.169 457.388 207.996C480.121 234.203 443.218 272.782 445.471 307.402C447.72 341.962 488.494 374.866 470.162 404.248C451.983 433.385 407.268 425.252 372.964 423.614C343.594 422.211 311.297 418.641 292.807 395.779C275.776 374.721 288.278 344.879 287.395 317.81C286.567 292.414 274.084 265.826 287.873 244.482Z" stroke="white" stroke-opacity="0.1" stroke-width="0.999765"/>
<path opacity="0.333333" fill-rule="evenodd" clip-rule="evenodd" d="M294.418 248.408C311.428 226.53 340.739 221.089 368.235 217.641C402.159 213.388 446.403 199.153 466.469 226.834C486.831 254.923 446.706 290.139 445.933 324.823C445.162 359.447 482.913 395.78 462.089 423.453C441.44 450.895 397.604 438.895 363.574 434.274C334.438 430.317 302.574 423.945 286.147 399.558C271.016 377.096 286.072 348.457 287.552 321.415C288.94 296.043 278.821 268.468 294.418 248.408Z" stroke="white" stroke-opacity="0.1" stroke-width="0.999765"/>
<path opacity="0.375" fill-rule="evenodd" clip-rule="evenodd" d="M300.349 252.915C319.2 232.604 348.874 229.738 376.566 228.7C410.731 227.419 456.047 217.095 473.625 246.419C491.461 276.176 448.419 307.76 444.627 342.246C440.841 376.671 475.281 416.155 452.125 441.908C429.163 467.446 386.54 451.672 353.042 444.102C324.361 437.62 293.174 428.496 278.935 402.77C265.82 379.075 283.314 351.857 287.145 325.046C290.74 299.892 283.063 271.54 300.349 252.915Z" stroke="white" stroke-opacity="0.1" stroke-width="0.999765"/>
<path opacity="0.416667" fill-rule="evenodd" clip-rule="evenodd" d="M305.616 257.95C326.166 239.359 355.976 239.091 383.654 240.47C417.8 242.171 463.844 235.836 478.799 266.581C493.974 297.779 448.343 325.492 441.559 359.515C434.787 393.48 465.656 435.815 440.343 459.452C415.242 482.891 374.156 463.462 341.445 453.001C313.439 444.045 283.166 432.237 271.223 405.369C260.223 380.62 280.023 355.031 286.176 328.656C291.949 303.91 286.772 274.998 305.616 257.95Z" stroke="white" stroke-opacity="0.1" stroke-width="0.999765"/>
<path opacity="0.458333" fill-rule="evenodd" clip-rule="evenodd" d="M310.175 263.452C332.268 246.723 361.988 249.054 389.44 252.84C423.308 257.511 469.729 255.213 481.947 287.144C494.345 319.546 446.473 343.176 436.749 376.479C427.043 409.724 454.104 454.589 426.827 475.93C399.779 497.092 360.543 474.156 328.868 460.884C301.749 449.521 272.62 435.12 263.065 407.312C254.264 381.699 276.218 357.933 284.647 332.195C292.555 308.046 289.918 278.792 310.175 263.452Z" stroke="white" stroke-opacity="0.1" stroke-width="0.999765"/>
<path opacity="0.5" fill-rule="evenodd" clip-rule="evenodd" d="M313.989 269.358C337.456 254.618 366.86 259.53 393.877 265.694C427.21 273.3 473.654 275.056 483.043 307.93C492.57 341.289 442.82 360.658 430.231 392.986C417.664 425.259 440.712 472.312 411.679 491.194C382.89 509.918 345.802 483.65 315.404 467.668C289.379 453.984 261.616 437.099 254.52 408.565C247.985 382.282 271.927 360.519 282.567 335.614C292.549 312.247 292.472 282.874 313.989 269.358Z" stroke="white" stroke-opacity="0.1" stroke-width="0.999765"/>
<path opacity="0.541667" fill-rule="evenodd" clip-rule="evenodd" d="M317.026 275.601C341.688 262.962 370.552 270.418 396.93 278.914C429.472 289.395 475.586 295.193 482.074 328.76C488.658 362.823 437.409 377.782 422.051 408.89C406.719 439.944 425.578 488.827 395.01 505.107C364.698 521.251 330.041 491.85 301.152 473.279C276.418 457.38 250.232 438.139 245.651 409.095C241.431 382.343 267.179 362.75 279.949 338.866C291.93 316.458 294.413 287.19 317.026 275.601Z" stroke="white" stroke-opacity="0.1" stroke-width="0.999765"/>
<path opacity="0.583333" fill-rule="evenodd" clip-rule="evenodd" d="M319.259 282.112C344.929 271.671 373.033 281.614 398.57 292.377C430.075 305.654 475.508 315.449 479.046 349.454C482.635 383.961 430.278 394.396 412.267 424.047C394.287 453.647 408.814 503.987 376.943 517.541C345.34 530.982 313.377 498.672 286.216 477.655C262.962 459.66 238.553 438.21 236.52 408.877C234.648 381.859 262.006 364.585 276.809 341.905C290.697 320.626 295.721 291.687 319.259 282.112Z" stroke="white" stroke-opacity="0.1" stroke-width="0.999765"/>
<path opacity="0.625" fill-rule="evenodd" clip-rule="evenodd" d="M320.668 288.821C347.15 280.656 374.281 293.011 398.782 305.958C429.01 321.931 473.417 335.648 473.978 369.833C474.546 404.521 421.479 410.353 400.952 438.322C380.46 466.242 390.544 517.657 357.614 528.381C324.959 539.016 295.934 504.044 270.708 480.739C249.111 460.786 226.664 437.291 227.196 407.892C227.685 380.813 256.445 365.989 273.168 344.686C288.858 324.699 296.386 296.307 320.668 288.821Z" stroke="white" stroke-opacity="0.1" stroke-width="0.999765"/>
<path opacity="0.666667" fill-rule="evenodd" clip-rule="evenodd" d="M321.238 295.653C348.331 289.828 374.282 304.5 397.561 319.534C426.282 338.081 469.325 355.616 466.904 389.719C464.447 424.325 411.073 425.51 388.186 451.583C365.339 477.611 370.904 529.709 337.164 537.523C303.707 545.271 277.84 507.902 254.742 482.487C234.966 460.728 214.652 435.365 217.744 406.125C220.592 379.192 250.534 366.931 269.05 347.166C286.422 328.622 296.396 300.995 321.238 295.653Z" stroke="white" stroke-opacity="0.1" stroke-width="0.999765"/>
<path opacity="0.708333" fill-rule="evenodd" clip-rule="evenodd" d="M320.962 302.537C348.46 299.095 373.033 315.974 394.914 332.979C421.909 353.958 463.26 375.178 457.875 408.94C452.412 443.2 399.138 439.729 374.066 463.708C349.037 487.646 350.04 540.031 315.748 544.874C281.742 549.677 259.231 510.196 238.436 482.864C220.631 459.464 202.606 432.428 208.234 403.568C213.418 376.986 244.315 367.381 264.483 349.306C283.406 332.346 295.749 305.693 320.962 302.537Z" stroke="white" stroke-opacity="0.1" stroke-width="0.999765"/>
<path opacity="0.75" fill-rule="evenodd" clip-rule="evenodd" d="M319.84 309.398C347.533 308.366 370.541 327.322 390.857 346.169C415.921 369.421 455.265 394.165 446.958 427.329C438.529 460.982 385.761 452.881 358.694 474.584C331.675 496.249 328.108 548.522 293.524 550.358C259.229 552.179 240.245 510.886 221.911 481.846C206.214 456.983 190.613 428.479 198.735 400.22C206.216 374.191 237.832 367.315 259.499 351.066C279.828 335.82 294.447 310.344 319.84 309.398Z" stroke="white" stroke-opacity="0.1" stroke-width="0.999765"/>
<path opacity="0.791667" fill-rule="evenodd" clip-rule="evenodd" d="M317.875 316.162C345.553 317.547 366.821 338.436 385.417 358.983C408.359 384.331 445.397 412.409 434.231 444.723C422.901 477.514 371.04 464.845 342.185 484.106C313.38 503.334 305.271 555.097 270.658 553.912C236.335 552.737 221.022 509.946 205.289 479.419C191.818 453.283 178.761 423.527 189.315 396.083C199.037 370.805 231.132 366.711 254.132 352.412C275.713 338.997 292.497 314.892 317.875 316.162Z" stroke="white" stroke-opacity="0.1" stroke-width="0.999765"/>
<path opacity="0.833333" fill-rule="evenodd" clip-rule="evenodd" d="M315.079 322.756C342.531 326.549 361.898 349.212 378.632 371.301C399.278 398.552 433.727 429.752 419.788 460.97C405.643 492.648 355.083 475.507 324.659 492.18C294.288 508.824 281.699 559.683 247.321 555.486C213.231 551.324 201.705 507.362 188.692 475.58C177.551 448.369 167.137 417.588 180.043 391.169C191.931 366.834 224.261 365.553 248.42 353.313C271.087 341.83 289.908 319.279 315.079 322.756Z" stroke="white" stroke-opacity="0.1" stroke-width="0.999765"/>
<path opacity="0.875" fill-rule="evenodd" clip-rule="evenodd" d="M311.472 329.109C338.489 335.28 355.807 359.545 370.552 383.008C388.744 411.955 420.343 446.038 403.736 475.923C386.885 506.248 338.011 484.765 306.249 498.723C274.543 512.657 257.569 562.225 223.688 555.048C190.09 547.931 182.44 503.131 172.247 470.336C163.52 442.257 155.828 410.686 170.987 385.492C184.951 362.286 217.269 363.828 242.403 353.74C265.985 344.276 286.7 323.452 311.472 329.109Z" stroke="white" stroke-opacity="0.1" stroke-width="0.999765"/>
<path opacity="0.916667" fill-rule="evenodd" clip-rule="evenodd" d="M307.077 335.151C333.452 343.652 348.59 369.335 361.234 393.994C376.834 424.416 405.342 461.124 386.194 489.447C366.763 518.188 319.948 492.527 287.091 503.664C254.29 514.782 233.061 562.682 199.934 552.579C167.085 542.561 163.368 497.265 156.072 463.706C149.825 434.974 144.914 402.852 162.212 379.075C178.145 357.175 210.206 361.527 236.124 353.668C260.441 346.295 282.891 327.356 307.077 335.151Z" stroke="white" stroke-opacity="0.1" stroke-width="0.999765"/>
<path opacity="0.958333" fill-rule="evenodd" clip-rule="evenodd" d="M301.923 340.814C327.458 351.582 340.299 378.485 350.746 404.153C363.635 435.819 388.835 474.871 367.291 501.418C345.43 528.356 301.029 498.713 267.326 506.944C233.682 515.16 208.358 561.028 176.238 548.076C144.387 535.233 144.633 489.786 140.289 455.718C136.57 426.551 134.477 394.124 153.782 371.945C171.562 351.516 203.122 358.646 229.626 353.077C254.493 347.851 278.509 330.94 301.923 340.814Z" stroke="white" stroke-opacity="0.1" stroke-width="0.999765"/>
<path fill-rule="evenodd" clip-rule="evenodd" d="M296.047 346.033C320.546 358.985 330.994 386.906 339.164 413.386C349.243 446.055 370.945 487.155 347.169 511.723C323.043 536.654 281.394 503.253 247.102 508.515C212.87 513.768 183.645 557.255 152.776 541.553C122.166 525.982 126.371 480.729 125.013 446.413C123.851 417.033 124.592 384.547 145.756 364.134C165.249 345.333 196.068 355.187 222.956 351.948C248.184 348.91 273.583 334.157 296.047 346.033Z" stroke="white" stroke-opacity="0.1" stroke-width="0.999765"/>
</svg>
