<svg width="17" height="17" viewBox="0 0 17 17" fill="none" xmlns="http://www.w3.org/2000/svg">
<path d="M11.6061 5.96967C12.8116 5.96967 13.9678 6.44856 14.8202 7.301C15.6726 8.15344 16.1515 9.30959 16.1515 10.5151V15.8182H13.1212V10.5151C13.1212 10.1133 12.9616 9.7279 12.6774 9.44375C12.3933 9.1596 12.0079 8.99997 11.6061 8.99997C11.2042 8.99997 10.8188 9.1596 10.5347 9.44375C10.2505 9.7279 10.0909 10.1133 10.0909 10.5151V15.8182H7.06061V10.5151C7.06061 9.30959 7.5395 8.15344 8.39194 7.301C9.24438 6.44856 10.4005 5.96967 11.6061 5.96967Z" stroke="#FF9800" stroke-width="0.909091" stroke-linecap="round" stroke-linejoin="round"/>
<path d="M4.0303 6.72723H1V15.8181H4.0303V6.72723Z" stroke="#FF9800" stroke-width="0.909091" stroke-linecap="round" stroke-linejoin="round"/>
<path d="M2.51515 4.4545C3.35195 4.4545 4.0303 3.77614 4.0303 2.93935C4.0303 2.10255 3.35195 1.42419 2.51515 1.42419C1.67836 1.42419 1 2.10255 1 2.93935C1 3.77614 1.67836 4.4545 2.51515 4.4545Z" stroke="#FF9800" stroke-width="0.909091" stroke-linecap="round" stroke-linejoin="round"/>
</svg>
