  <svg
    width="52"
    height="12"
    viewBox="0 0 52 12"
    fill="none"
    xmlns="http://www.w3.org/2000/svg"
  >
    <g clip-path="url(#clip0_0_1)">
      <path
        d="M8.4119 6.97135C8.30351 7.07639 8.25371 7.22829 8.2784 7.37727L8.65043 9.4362C8.68182 9.61071 8.60817 9.78731 8.46212 9.88816C8.319 9.99278 8.12859 10.0053 7.97249 9.92164L6.11904 8.95495C6.0546 8.92063 5.98304 8.90222 5.9098 8.90013H5.79639C5.75706 8.90599 5.71856 8.91854 5.6834 8.93779L3.82953 9.90908C3.73789 9.95512 3.6341 9.97144 3.53241 9.95512C3.28467 9.90825 3.11937 9.67222 3.15996 9.42323L3.53241 7.3643C3.5571 7.21407 3.5073 7.06132 3.39892 6.95461L1.88778 5.48992C1.7614 5.36731 1.71746 5.18318 1.77521 5.01704C1.83129 4.85132 1.97441 4.73038 2.14724 4.70318L4.22709 4.40146C4.38527 4.38513 4.52421 4.28888 4.59535 4.1466L5.51183 2.26762C5.53359 2.22577 5.56163 2.18727 5.59552 2.15463L5.63318 2.12534C5.65285 2.10358 5.67545 2.08558 5.70056 2.07094L5.74618 2.0542L5.81732 2.0249H5.9935C6.15085 2.04122 6.28936 2.13538 6.36176 2.27599L7.29037 4.1466C7.35733 4.28344 7.48747 4.37844 7.63771 4.40146L9.71756 4.70318C9.89332 4.72829 10.0402 4.84965 10.0984 5.01704C10.1532 5.18485 10.1059 5.36898 9.97702 5.48992L8.4119 6.97135Z"
        fill="#FF9800"
      />
    </g>
    <path
      d="M18.4554 6.97135C18.347 7.07639 18.2972 7.22829 18.3219 7.37727L18.694 9.4362C18.7253 9.61071 18.6517 9.78731 18.5056 9.88816C18.3625 9.99278 18.1721 10.0053 18.016 9.92164L16.1626 8.95495C16.0981 8.92063 16.0266 8.90222 15.9533 8.90013H15.8399C15.8006 8.90599 15.7621 8.91854 15.7269 8.93779L13.8731 9.90908C13.7814 9.95512 13.6776 9.97144 13.5759 9.95512C13.3282 9.90825 13.1629 9.67222 13.2035 9.42323L13.5759 7.3643C13.6006 7.21407 13.5508 7.06132 13.4424 6.95461L11.9313 5.48992C11.8049 5.36731 11.761 5.18318 11.8187 5.01704C11.8748 4.85132 12.0179 4.73038 12.1908 4.70318L14.2706 4.40146C14.4288 4.38513 14.5677 4.28888 14.6389 4.1466L15.5553 2.26762C15.5771 2.22577 15.6051 2.18727 15.639 2.15463L15.6767 2.12534C15.6964 2.10358 15.719 2.08558 15.7441 2.07094L15.7897 2.0542L15.8608 2.0249H16.037C16.1944 2.04122 16.3329 2.13538 16.4053 2.27599L17.3339 4.1466C17.4008 4.28344 17.531 4.37844 17.6812 4.40146L19.7611 4.70318C19.9368 4.72829 20.0837 4.84965 20.1419 5.01704C20.1967 5.18485 20.1494 5.36898 20.0205 5.48992L18.4554 6.97135Z"
      fill="#FF9800"
    />
    <g clip-path="url(#clip1_0_1)">
      <path
        d="M28.499 6.97135C28.3906 7.07639 28.3408 7.22829 28.3655 7.37727L28.7375 9.4362C28.7689 9.61071 28.6952 9.78731 28.5492 9.88816C28.4061 9.99278 28.2157 10.0053 28.0596 9.92164L26.2061 8.95495C26.1417 8.92063 26.0701 8.90222 25.9969 8.90013H25.8835C25.8441 8.90599 25.8056 8.91854 25.7705 8.93779L23.9166 9.90908C23.825 9.95512 23.7212 9.97144 23.6195 9.95512C23.3717 9.90825 23.2064 9.67222 23.247 9.42323L23.6195 7.3643C23.6442 7.21407 23.5944 7.06132 23.486 6.95461L21.9748 5.48992C21.8485 5.36731 21.8045 5.18318 21.8623 5.01704C21.9184 4.85132 22.0615 4.73038 22.2343 4.70318L24.3142 4.40146C24.4723 4.38513 24.6113 4.28888 24.6824 4.1466L25.5989 2.26762C25.6207 2.22577 25.6487 2.18727 25.6826 2.15463L25.7203 2.12534C25.7399 2.10358 25.7625 2.08558 25.7876 2.07094L25.8332 2.0542L25.9044 2.0249H26.0806C26.2379 2.04122 26.3764 2.13538 26.4488 2.27599L27.3774 4.1466C27.4444 4.28344 27.5745 4.37844 27.7248 4.40146L29.8046 4.70318C29.9804 4.72829 30.1273 4.84965 30.1854 5.01704C30.2403 5.18485 30.193 5.36898 30.0641 5.48992L28.499 6.97135Z"
        fill="#FF9800"
      />
    </g>
    <g clip-path="url(#clip2_0_1)">
      <path
        d="M38.5425 6.97135C38.4341 7.07639 38.3843 7.22829 38.409 7.37727L38.781 9.4362C38.8124 9.61071 38.7388 9.78731 38.5927 9.88816C38.4496 9.99278 38.2592 10.0053 38.1031 9.92164L36.2497 8.95495C36.1852 8.92063 36.1137 8.90222 36.0404 8.90013H35.927C35.8877 8.90599 35.8492 8.91854 35.814 8.93779L33.9601 9.90908C33.8685 9.95512 33.7647 9.97144 33.663 9.95512C33.4153 9.90825 33.25 9.67222 33.2906 9.42323L33.663 7.3643C33.6877 7.21407 33.6379 7.06132 33.5295 6.95461L32.0184 5.48992C31.892 5.36731 31.8481 5.18318 31.9058 5.01704C31.9619 4.85132 32.105 4.73038 32.2779 4.70318L34.3577 4.40146C34.5159 4.38513 34.6548 4.28888 34.726 4.1466L35.6424 2.26762C35.6642 2.22577 35.6922 2.18727 35.7261 2.15463L35.7638 2.12534C35.7835 2.10358 35.8061 2.08558 35.8312 2.07094L35.8768 2.0542L35.9479 2.0249H36.1241C36.2815 2.04122 36.42 2.13538 36.4924 2.27599L37.421 4.1466C37.4879 4.28344 37.6181 4.37844 37.7683 4.40146L39.8482 4.70318C40.0239 4.72829 40.1708 4.84965 40.229 5.01704C40.2838 5.18485 40.2365 5.36898 40.1076 5.48992L38.5425 6.97135Z"
        fill="#FF9800"
      />
    </g>
    <g clip-path="url(#clip3_0_1)">
      <path
        d="M48.5861 6.97135C48.4777 7.07639 48.4279 7.22829 48.4526 7.37727L48.8246 9.4362C48.856 9.61071 48.7823 9.78731 48.6363 9.88816C48.4932 9.99278 48.3028 10.0053 48.1467 9.92164L46.2932 8.95495C46.2288 8.92063 46.1572 8.90222 46.084 8.90013H45.9706C45.9312 8.90599 45.8927 8.91854 45.8576 8.93779L44.0037 9.90908C43.912 9.95512 43.8083 9.97144 43.7066 9.95512C43.4588 9.90825 43.2935 9.67222 43.3341 9.42323L43.7066 7.3643C43.7313 7.21407 43.6815 7.06132 43.5731 6.95461L42.0619 5.48992C41.9356 5.36731 41.8916 5.18318 41.9494 5.01704C42.0054 4.85132 42.1486 4.73038 42.3214 4.70318L44.4013 4.40146C44.5594 4.38513 44.6984 4.28888 44.7695 4.1466L45.686 2.26762C45.7078 2.22577 45.7358 2.18727 45.7697 2.15463L45.8073 2.12534C45.827 2.10358 45.8496 2.08558 45.8747 2.07094L45.9203 2.0542L45.9915 2.0249H46.1677C46.325 2.04122 46.4635 2.13538 46.5359 2.27599L47.4645 4.1466C47.5315 4.28344 47.6616 4.37844 47.8119 4.40146L49.8917 4.70318C50.0675 4.72829 50.2144 4.84965 50.2725 5.01704C50.3274 5.18485 50.2801 5.36898 50.1512 5.48992L48.5861 6.97135Z"
        fill="#FF9800"
      />
    </g>
    <defs>
      <clipPath id="clip0_0_1">
        <rect
          width="10.0435"
          height="10.0435"
          fill="white"
          transform="translate(0.91333 0.978516)"
        />
      </clipPath>
      <clipPath id="clip1_0_1">
        <rect
          width="10.0435"
          height="10.0435"
          fill="white"
          transform="translate(21.0004 0.978516)"
        />
      </clipPath>
      <clipPath id="clip2_0_1">
        <rect
          width="10.0435"
          height="10.0435"
          fill="white"
          transform="translate(31.044 0.978516)"
        />
      </clipPath>
      <clipPath id="clip3_0_1">
        <rect
          width="10.0435"
          height="10.0435"
          fill="white"
          transform="translate(41.0875 0.978516)"
        />
      </clipPath>
    </defs>
  </svg>