<svg width="22" height="20" viewBox="0 0 22 20" fill="none" xmlns="http://www.w3.org/2000/svg">
<path d="M16.5603 18.6469C19.4023 18.6469 21.16 16.6472 21.16 13.8237V6.18687C21.16 3.35357 19.4023 1.35391 16.57 1.35391H5.59866C2.77626 1.35391 1 3.35357 1 6.18687V13.8237C1 16.6472 2.76645 18.6469 5.59866 18.6469H12.0751" stroke="#828282" stroke-width="1.68" stroke-linecap="round" stroke-linejoin="round"/>
<path d="M4.59326 14.5005C4.59326 13.4119 5.45197 12.0573 7.92674 12.0573C10.4015 12.0573 11.2602 13.4021 11.2602 14.4908" stroke="#828282" stroke-width="1.68" stroke-linecap="round" stroke-linejoin="round"/>
<path d="M5.79834 7.62747C5.79834 8.80329 6.75185 9.75675 7.92767 9.75675C9.10349 9.75675 10.057 8.80329 10.057 7.62747C10.057 6.45165 9.10349 5.49814 7.92767 5.49814" stroke="#828282" stroke-width="1.68" stroke-linecap="round" stroke-linejoin="round"/>
<path d="M13.4551 8.14941L17.3443 8.20273M14.913 12.2955H17.3442" stroke="#828282" stroke-width="1.68" stroke-linecap="round" stroke-linejoin="round"/>
</svg>
