<svg width="176" height="97" viewBox="0 0 176 97" fill="none" xmlns="http://www.w3.org/2000/svg">
<path d="M31.384 31.4944L31.5543 32.4796L31.384 31.4944ZM69.3751 95.4794L69.1827 94.4984L69.3751 95.4794ZM106.901 27.3405C107.368 27.0453 107.506 26.4277 107.211 25.9611L102.401 18.3572C102.105 17.8906 101.488 17.7516 101.021 18.0468C100.555 18.342 100.416 18.9596 100.711 19.4262L104.987 26.1852L98.228 30.4614C97.7614 30.7566 97.6224 31.3742 97.9176 31.8408C98.2128 32.3074 98.8304 32.4463 99.297 32.1511L106.901 27.3405ZM3.86061 86.2391C1.89111 78.361 0.94202 66.2141 4.44178 55.3966C7.91754 44.6534 15.7723 35.2073 31.5543 32.4796L31.2137 30.5093C14.6033 33.3802 6.21189 43.4296 2.53933 54.7811C-1.10923 66.0585 -0.108773 78.6058 1.92078 86.724L3.86061 86.2391ZM31.5543 32.4796C51.1518 29.0924 66.6816 43.35 74.2187 59.4127C77.9767 67.4216 79.6642 75.7294 78.8953 82.2721C78.5116 85.5372 77.5229 88.3122 75.9283 90.4012C74.3464 92.4736 72.1327 93.9199 69.1827 94.4984L69.5675 96.4605C72.991 95.7892 75.6355 94.0801 77.5177 91.6145C79.3871 89.1655 80.4682 86.02 80.8812 82.5054C81.7057 75.4888 79.894 66.8006 76.0288 58.5633C68.3195 42.1336 52.1068 26.8981 31.2137 30.5093L31.5543 32.4796ZM69.1827 94.4984C66.4903 95.0263 64.1763 94.2874 62.228 92.5716C60.2465 90.8265 58.6211 88.044 57.478 84.4949C55.1933 77.4012 54.9376 67.5564 57.2867 57.94C59.6344 48.3297 64.5528 39.0703 72.487 33.0427C80.3888 27.0398 91.3982 24.1525 106.147 27.471L106.586 25.5202C91.3416 22.0903 79.7105 25.044 71.2775 31.4505C62.877 37.8323 57.7664 47.5507 55.3443 57.4655C52.9237 67.3745 53.1574 77.6023 55.5748 85.1079C56.7827 88.8584 58.5615 92.007 60.9065 94.0722C63.2847 96.1666 66.2196 97.117 69.5675 96.4605L69.1827 94.4984Z" fill="url(#paint0_linear_369_89)"/>
<g filter="url(#filter0_di_369_89)">
<circle cx="133.86" cy="33.9939" r="25.9939" fill="white"/>
</g>
<g filter="url(#filter1_d_369_89)">
<circle cx="133.86" cy="33.9939" r="18.9955" fill="url(#paint1_linear_369_89)" shape-rendering="crispEdges"/>
</g>
<g clip-path="url(#clip0_369_89)">
<path fill-rule="evenodd" clip-rule="evenodd" d="M139.941 37.4633C140.208 37.5776 140.331 37.887 140.217 38.1539L139.522 39.7745C138.948 41.1115 137.422 41.7902 136.046 41.3196L128.354 38.6888C126.978 38.2182 126.187 36.7471 126.553 35.3389L126.996 33.632C127.069 33.3512 127.356 33.1821 127.637 33.2552C127.916 33.3394 128.087 33.6148 128.014 33.8966L127.57 35.6026C127.342 36.4815 127.836 37.4004 128.694 37.6941L136.386 40.3249C137.245 40.6186 138.198 40.1944 138.555 39.3596L139.25 37.7396C139.365 37.4724 139.675 37.3607 139.941 37.4633ZM137.533 27.207C138.529 27.5479 139.099 28.5771 138.894 29.583L140.2 30.0302C141.59 30.5056 142.332 32.0253 141.855 33.4191L141.076 35.6996C141.015 35.8766 140.865 36.0075 140.683 36.0445C138.718 36.4432 136.454 36.2931 134.254 35.624L133.846 36.8167C133.752 37.0912 133.453 37.2378 133.178 37.1439C132.904 37.0501 132.757 36.751 132.851 36.4765L133.259 35.2839C131.112 34.467 129.229 33.1986 127.919 31.6791C127.797 31.5381 127.76 31.343 127.82 31.166L128.602 28.8789C129.078 27.489 130.598 26.746 131.991 27.2225L133.29 27.6663C133.744 26.7455 134.825 26.2811 135.822 26.6219L137.533 27.207ZM139.86 31.0249L131.651 28.2172C130.806 27.9283 129.885 28.3776 129.597 29.2191L128.914 31.2164C130.195 32.61 132.019 33.7574 134.085 34.4647L134.094 34.467L134.101 34.4698L134.418 34.5745C136.387 35.196 138.409 35.3699 140.18 35.0696L140.861 33.079C141.15 32.2335 140.701 31.3127 139.86 31.0249ZM137.192 28.2017L135.482 27.6166C135.035 27.4639 134.554 27.6388 134.302 28.0126L137.882 29.2371C137.912 28.7872 137.639 28.3544 137.192 28.2017Z" fill="white"/>
</g>
<defs>
<filter id="filter0_di_369_89" x="91.8697" y="0.00187683" width="83.9803" height="83.9803" filterUnits="userSpaceOnUse" color-interpolation-filters="sRGB">
<feFlood flood-opacity="0" result="BackgroundImageFix"/>
<feColorMatrix in="SourceAlpha" type="matrix" values="0 0 0 0 0 0 0 0 0 0 0 0 0 0 0 0 0 0 127 0" result="hardAlpha"/>
<feOffset dy="7.99812"/>
<feGaussianBlur stdDeviation="7.99812"/>
<feComposite in2="hardAlpha" operator="out"/>
<feColorMatrix type="matrix" values="0 0 0 0 0 0 0 0 0 0 0 0 0 0 0 0 0 0 0.25 0"/>
<feBlend mode="normal" in2="BackgroundImageFix" result="effect1_dropShadow_369_89"/>
<feBlend mode="normal" in="SourceGraphic" in2="effect1_dropShadow_369_89" result="shape"/>
<feColorMatrix in="SourceAlpha" type="matrix" values="0 0 0 0 0 0 0 0 0 0 0 0 0 0 0 0 0 0 127 0" result="hardAlpha"/>
<feOffset dy="3.99906"/>
<feGaussianBlur stdDeviation="3.99906"/>
<feComposite in2="hardAlpha" operator="arithmetic" k2="-1" k3="1"/>
<feColorMatrix type="matrix" values="0 0 0 0 0.0431373 0 0 0 0 0.341177 0 0 0 0 0.658824 0 0 0 0.21 0"/>
<feBlend mode="normal" in2="shape" result="effect2_innerShadow_369_89"/>
</filter>
<filter id="filter1_d_369_89" x="106.866" y="10.9993" width="53.9873" height="53.9873" filterUnits="userSpaceOnUse" color-interpolation-filters="sRGB">
<feFlood flood-opacity="0" result="BackgroundImageFix"/>
<feColorMatrix in="SourceAlpha" type="matrix" values="0 0 0 0 0 0 0 0 0 0 0 0 0 0 0 0 0 0 127 0" result="hardAlpha"/>
<feOffset dy="3.99906"/>
<feGaussianBlur stdDeviation="3.99906"/>
<feComposite in2="hardAlpha" operator="out"/>
<feColorMatrix type="matrix" values="0 0 0 0 0.0431373 0 0 0 0 0.345098 0 0 0 0 0.658824 0 0 0 0.19 0"/>
<feBlend mode="normal" in2="BackgroundImageFix" result="effect1_dropShadow_369_89"/>
<feBlend mode="normal" in="SourceGraphic" in2="effect1_dropShadow_369_89" result="shape"/>
</filter>
<linearGradient id="paint0_linear_369_89" x1="78.373" y1="26.9955" x2="28.8846" y2="91.4804" gradientUnits="userSpaceOnUse">
<stop stop-color="white"/>
<stop offset="1" stop-color="white" stop-opacity="0"/>
</linearGradient>
<linearGradient id="paint1_linear_369_89" x1="114.864" y1="50.7281" x2="155.569" y2="24.4961" gradientUnits="userSpaceOnUse">
<stop stop-color="#FBA525" stop-opacity="0.67"/>
<stop offset="1" stop-color="#F6931C"/>
</linearGradient>
<clipPath id="clip0_369_89">
<rect width="16.8196" height="16.8196" fill="white" transform="translate(129.177 22.8679) rotate(18.8816)"/>
</clipPath>
</defs>
</svg>
