<svg width="400" height="442" viewBox="0 0 400 442" fill="none" xmlns="http://www.w3.org/2000/svg">
<path d="M49.1352 0.599452C20.4566 43.1444 3.8868 92.687 1.19934 143.925C-1.48813 195.163 9.80788 246.167 33.8784 291.479C57.9488 336.79 93.8877 374.704 137.848 401.161C181.809 427.618 232.137 441.624 283.445 441.678C334.753 441.732 385.111 427.834 429.127 401.469C473.144 375.105 509.163 337.268 533.329 292.007C557.495 246.747 568.899 195.766 566.32 144.523C563.741 93.2796 547.277 43.702 518.688 1.09645L496.005 16.3171C521.833 54.8092 536.708 99.6002 539.038 145.896C541.368 192.192 531.065 238.25 509.232 279.141C487.399 320.032 454.858 354.216 415.091 378.035C375.324 401.853 329.828 414.41 283.474 414.361C237.119 414.312 191.651 401.659 151.934 377.756C112.218 353.853 79.749 319.6 58.0025 278.663C36.256 237.726 26.0506 191.647 28.4786 145.356C30.9066 99.0648 45.8765 54.3054 71.7863 15.8681L49.1352 0.599452Z" fill="#949494" fill-opacity="0.15"/>
</svg>
