<svg width="380" height="552" viewBox="0 0 380 552" fill="none" xmlns="http://www.w3.org/2000/svg">
<circle cx="276" cy="276" r="256" stroke="url(#paint0_linear_0_1)" stroke-opacity="0.3" stroke-width="40"/>
<g opacity="0.3">
<g clip-path="url(#clip0_0_1)">
<path d="M195 462C186.7 462 180 468.7 180 477C180 487 195 502 195 502C195 502 210 487 210 477C210 468.7 203.3 462 195 462ZM195 467C200.55 467 205 471.5 205 477C205 482.55 200.55 487 195 487C189.5 487 185 482.55 185 477C185 471.5 189.5 467 195 467Z" fill="white"/>
<g filter="url(#filter0_d_0_1)">
<circle cx="195" cy="476.857" r="10.2857" fill="url(#paint1_linear_0_1)"/>
</g>
<g clip-path="url(#clip1_0_1)">
<path fill-rule="evenodd" clip-rule="evenodd" d="M192.965 473.048C193.39 473.053 193.694 473.372 194.077 473.776C194.172 473.875 194.274 473.984 194.389 474.098C194.945 474.654 194.787 475.108 194.659 475.472C194.521 475.869 194.401 476.212 195.119 476.931C195.838 477.649 196.18 477.529 196.577 477.389C196.942 477.262 197.394 477.103 197.951 477.659C198.064 477.772 198.171 477.873 198.27 477.968C198.675 478.353 198.995 478.657 199 479.084C199.004 479.448 198.783 479.819 198.238 480.364L197.996 480.2L198.201 480.4C198.08 480.523 197.759 480.853 197.13 480.857H197.119C196.169 480.857 194.932 480.101 193.44 478.61C191.942 477.112 191.185 475.871 191.191 474.92C191.194 474.291 191.524 473.969 191.647 473.848L191.658 473.837L191.684 473.811C192.23 473.264 192.606 473.04 192.965 473.048ZM192.958 473.619H192.954C192.783 473.619 192.524 473.79 192.161 474.142L192.089 474.214L192.089 474.214C192.089 474.214 192.083 474.221 192.073 474.232L192.047 474.257C191.955 474.347 191.764 474.533 191.762 474.923C191.759 475.468 192.118 476.48 193.844 478.206C195.561 479.923 196.572 480.286 197.119 480.286H197.127C197.516 480.283 197.702 480.093 197.792 480.001C197.819 479.973 197.841 479.952 197.857 479.939C198.236 479.557 198.431 479.273 198.429 479.091C198.426 478.905 198.195 478.686 197.876 478.381C197.774 478.285 197.663 478.179 197.547 478.063C197.244 477.761 197.095 477.813 196.766 477.929C196.311 478.088 195.687 478.307 194.715 477.334C193.743 476.363 193.961 475.739 194.12 475.283C194.235 474.954 194.287 474.805 193.985 474.502C193.867 474.384 193.761 474.272 193.663 474.169C193.361 473.851 193.142 473.622 192.958 473.619ZM196.237 474.403C197.03 474.557 197.642 475.169 197.796 475.962C197.826 476.117 197.725 476.267 197.571 476.297C197.552 476.3 197.534 476.302 197.515 476.302C197.381 476.302 197.262 476.208 197.235 476.071C197.126 475.508 196.691 475.073 196.128 474.964C195.973 474.933 195.872 474.784 195.902 474.629C195.932 474.474 196.084 474.372 196.237 474.403ZM196.214 473.05C197.768 473.222 198.974 474.427 199.148 475.98C199.166 476.137 199.053 476.279 198.896 476.296C198.886 476.297 198.875 476.298 198.864 476.298C198.72 476.298 198.597 476.19 198.58 476.044C198.436 474.758 197.437 473.76 196.151 473.617C195.994 473.6 195.881 473.459 195.899 473.302C195.916 473.145 196.056 473.03 196.214 473.05Z" fill="white"/>
</g>
</g>
</g>
<defs>
<filter id="filter0_d_0_1" x="178.314" y="463.372" width="33.3714" height="33.3715" filterUnits="userSpaceOnUse" color-interpolation-filters="sRGB">
<feFlood flood-opacity="0" result="BackgroundImageFix"/>
<feColorMatrix in="SourceAlpha" type="matrix" values="0 0 0 0 0 0 0 0 0 0 0 0 0 0 0 0 0 0 127 0" result="hardAlpha"/>
<feOffset dy="3.2"/>
<feGaussianBlur stdDeviation="3.2"/>
<feComposite in2="hardAlpha" operator="out"/>
<feColorMatrix type="matrix" values="0 0 0 0 0.941176 0 0 0 0 0.305882 0 0 0 0 0.243137 0 0 0 0.25 0"/>
<feBlend mode="normal" in2="BackgroundImageFix" result="effect1_dropShadow_0_1"/>
<feBlend mode="normal" in="SourceGraphic" in2="effect1_dropShadow_0_1" result="shape"/>
</filter>
<linearGradient id="paint0_linear_0_1" x1="-16.3091" y1="276" x2="154" y2="239" gradientUnits="userSpaceOnUse">
<stop stop-color="#3C5567" stop-opacity="0.29"/>
<stop offset="1" stop-color="#F1C6C3" stop-opacity="0"/>
</linearGradient>
<linearGradient id="paint1_linear_0_1" x1="183.862" y1="489.554" x2="208.466" y2="486.597" gradientUnits="userSpaceOnUse">
<stop stop-color="#EF4439"/>
<stop offset="1" stop-color="#F4995E"/>
</linearGradient>
<clipPath id="clip0_0_1">
<rect width="40" height="40" fill="white" transform="translate(175 462)"/>
</clipPath>
<clipPath id="clip1_0_1">
<rect width="9.14286" height="9.14286" fill="white" transform="translate(190.429 472.286)"/>
</clipPath>
</defs>
</svg>
