<svg width="477" height="567" viewBox="0 0 477 567" fill="none" xmlns="http://www.w3.org/2000/svg">
<mask id="path-1-inside-1_371_93" fill="white">
<path d="M387.142 20.529C340.081 2.05198 288.93 -3.47749 239.008 4.51577C189.086 12.509 142.218 33.733 103.279 65.9798C64.3401 98.2266 34.7532 140.318 17.5961 187.876C0.439075 235.433 -3.66138 286.719 5.72133 336.399C15.104 386.078 37.6271 432.336 70.9476 470.36C104.268 508.384 147.169 536.786 195.186 552.609C243.204 568.433 294.584 571.101 343.983 560.337C393.381 549.572 438.993 525.767 476.073 491.399L470.114 484.97C434.183 518.273 389.984 541.34 342.116 551.772C294.248 562.203 244.46 559.617 197.93 544.284C151.4 528.95 109.828 501.429 77.5404 464.583C45.2523 427.737 23.427 382.912 14.335 334.772C5.24297 286.632 9.21638 236.935 25.8419 190.85C42.4674 144.766 71.1376 103.979 108.87 72.7312C146.602 41.4835 192.018 20.9171 240.394 13.1714C288.769 5.42583 338.336 10.784 383.938 28.6885L387.142 20.529Z"/>
</mask>
<path d="M387.142 20.529C340.081 2.05198 288.93 -3.47749 239.008 4.51577C189.086 12.509 142.218 33.733 103.279 65.9798C64.3401 98.2266 34.7532 140.318 17.5961 187.876C0.439075 235.433 -3.66138 286.719 5.72133 336.399C15.104 386.078 37.6271 432.336 70.9476 470.36C104.268 508.384 147.169 536.786 195.186 552.609C243.204 568.433 294.584 571.101 343.983 560.337C393.381 549.572 438.993 525.767 476.073 491.399L470.114 484.97C434.183 518.273 389.984 541.34 342.116 551.772C294.248 562.203 244.46 559.617 197.93 544.284C151.4 528.95 109.828 501.429 77.5404 464.583C45.2523 427.737 23.427 382.912 14.335 334.772C5.24297 286.632 9.21638 236.935 25.8419 190.85C42.4674 144.766 71.1376 103.979 108.87 72.7312C146.602 41.4835 192.018 20.9171 240.394 13.1714C288.769 5.42583 338.336 10.784 383.938 28.6885L387.142 20.529Z" stroke="white" stroke-opacity="0.2" stroke-width="39.9906" mask="url(#path-1-inside-1_371_93)"/>
</svg>
