<svg width="189" height="189" viewBox="0 0 189 189" fill="none" xmlns="http://www.w3.org/2000/svg">
<g filter="url(#filter0_b_369_79)">
<rect y="50.358" width="146.966" height="146.966" rx="24.9941" transform="rotate(-20.0385 0 50.358)" fill="white" fill-opacity="0.2"/>
</g>
<g clip-path="url(#clip0_369_79)">
<path fill-rule="evenodd" clip-rule="evenodd" d="M78.9869 61.3927C87.5893 59.0876 94.9465 63.4302 97.2955 72.1968L104.038 97.3584C106.407 106.202 102.347 113.454 93.6938 115.831L72.6468 121.479C64.0444 123.784 56.6844 119.443 54.3354 110.676L47.5934 85.5144C45.2231 76.6684 49.2837 69.419 57.9379 67.0444L78.9841 61.3934L78.9869 61.3927ZM80.0866 65.4969L59.0513 71.145C52.6918 72.8901 49.9388 77.8507 51.6976 84.4147L58.4397 109.576C60.2102 116.184 65.1117 119.1 71.5444 117.376L92.5804 111.731C98.9399 109.985 101.691 105.019 99.9333 98.4581L93.1913 73.2965C91.4207 66.6887 86.522 63.7725 80.0866 65.4969ZM88.3373 98.4001C89.47 98.0966 90.6357 98.7696 90.9392 99.9024C91.2428 101.035 90.5698 102.201 89.437 102.504L69.682 107.798C68.5492 108.101 67.3836 107.428 67.08 106.295C66.7765 105.163 67.4495 103.997 68.5823 103.693L88.3373 98.4001ZM85.268 86.9452C86.4007 86.6417 87.5664 87.3147 87.8699 88.4475C88.1734 89.5802 87.5004 90.7459 86.3677 91.0495L66.6127 96.3428C65.4799 96.6463 64.3142 95.9733 64.0107 94.8405C63.7072 93.7078 64.3802 92.5421 65.513 92.2386L85.268 86.9452ZM69.988 78.7906C71.1208 78.4871 72.2865 79.1601 72.59 80.2929C72.8935 81.4256 72.2205 82.5913 71.0877 82.8948L63.5496 84.9147C62.4169 85.2182 61.2512 84.5452 60.9477 83.4124C60.6442 82.2797 61.3172 81.114 62.4499 80.8104L69.988 78.7906Z" fill="white"/>
</g>
<path d="M54.9871 141.967C54.9871 141.967 56.9866 149.608 65.4846 154.464C72.483 158.463 81.4808 154.464 81.4808 154.464" stroke="white" stroke-opacity="0.3" stroke-width="3.99906" stroke-linecap="round"/>
<defs>
<filter id="filter0_b_369_79" x="-65.9385" y="-65.9385" width="320.304" height="320.304" filterUnits="userSpaceOnUse" color-interpolation-filters="sRGB">
<feFlood flood-opacity="0" result="BackgroundImageFix"/>
<feGaussianBlur in="BackgroundImageFix" stdDeviation="36.4914"/>
<feComposite in2="SourceAlpha" operator="in" result="effect1_backgroundBlur_369_79"/>
<feBlend mode="normal" in="SourceGraphic" in2="effect1_backgroundBlur_369_79" result="shape"/>
</filter>
<clipPath id="clip0_369_79">
<rect width="67.984" height="67.984" fill="white" transform="translate(33.992 67.5838) rotate(-15)"/>
</clipPath>
</defs>
</svg>
