<svg width="115" height="115" viewBox="0 0 115 115" fill="none" xmlns="http://www.w3.org/2000/svg">
<g opacity="0.2">
<circle cx="7.5" cy="7.5" r="7.5" fill="#F1C6C3"/>
<circle cx="7.5" cy="7.5" r="7.5" fill="#F1C6C3"/>
<circle cx="7.5" cy="7.5" r="7.5" fill="#F1C6C3"/>
<circle cx="7.5" cy="32.5" r="7.5" fill="#F1C6C3"/>
<circle cx="7.5" cy="57.5" r="7.5" fill="#F1C6C3"/>
<circle cx="7.5" cy="82.5" r="7.5" fill="#F1C6C3"/>
<circle cx="7.5" cy="107.5" r="7.5" fill="#F1C6C3"/>
<circle cx="32.5" cy="7.5" r="7.5" fill="#F1C6C3"/>
<circle cx="32.5" cy="7.5" r="7.5" fill="#F1C6C3"/>
<circle cx="57.5" cy="7.5" r="7.5" fill="#F1C6C3"/>
<circle cx="32.5" cy="32.5" r="7.5" fill="#F1C6C3"/>
<circle cx="32.5" cy="57.5" r="7.5" fill="#F1C6C3"/>
<circle cx="32.5" cy="82.5" r="7.5" fill="#F1C6C3"/>
<circle cx="32.5" cy="107.5" r="7.5" fill="#F1C6C3"/>
<circle cx="82.5" cy="7.5" r="7.5" fill="#F1C6C3"/>
<circle cx="57.5" cy="7.5" r="7.5" fill="#F1C6C3"/>
<circle cx="107.5" cy="7.5" r="7.5" fill="#F1C6C3"/>
<circle cx="57.5" cy="32.5" r="7.5" fill="#F1C6C3"/>
<circle cx="57.5" cy="57.5" r="7.5" fill="#F1C6C3"/>
<circle cx="57.5" cy="82.5" r="7.5" fill="#F1C6C3"/>
<circle cx="57.5" cy="107.5" r="7.5" fill="#F1C6C3"/>
<circle cx="82.5" cy="7.5" r="7.5" fill="#F1C6C3"/>
<circle cx="82.5" cy="32.5" r="7.5" fill="#F1C6C3"/>
<circle cx="82.5" cy="57.5" r="7.5" fill="#F1C6C3"/>
<circle cx="82.5" cy="82.5" r="7.5" fill="#F1C6C3"/>
<circle cx="82.5" cy="107.5" r="7.5" fill="#F1C6C3"/>
<circle cx="107.5" cy="7.5" r="7.5" fill="#F1C6C3"/>
<circle cx="107.5" cy="32.5" r="7.5" fill="#F1C6C3"/>
<circle cx="107.5" cy="57.5" r="7.5" fill="#F1C6C3"/>
<circle cx="107.5" cy="82.5" r="7.5" fill="#F1C6C3"/>
<circle cx="107.5" cy="107.5" r="7.5" fill="#F1C6C3"/>
</g>
</svg>
