<svg width="23" height="24" viewBox="0 0 23 24" fill="none" xmlns="http://www.w3.org/2000/svg">
<path d="M12.8739 1.54785H6.55162C6.33578 1.54785 6.13239 1.55914 5.92787 1.57045C2.88029 1.85408 1 4.17732 1 7.38309V16.6173C1 19.8242 2.869 22.1464 5.92787 22.43C6.13239 22.4413 6.33578 22.4526 6.55162 22.4526H16.3519C16.5339 22.4526 16.726 22.4413 16.8966 22.43C20.0007 22.1814 21.916 19.8581 21.916 16.6173V10.703" stroke="#828282" stroke-width="1.75" stroke-linecap="round" stroke-linejoin="round"/>
<path d="M3.86914 17.054L5.60028 15.2269C6.2003 14.5885 7.20485 14.5579 7.84217 15.1579L7.84443 15.1591L8.90548 16.2371C9.53374 16.8778 10.562 16.888 11.2028 16.2596C11.2445 16.219 13.8469 13.063 13.8469 13.063C14.5181 12.2483 15.7227 12.1318 16.5374 12.803C16.5916 12.8483 19.0505 15.3716 19.0505 15.3716" stroke="#828282" stroke-width="1.75" stroke-linecap="round" stroke-linejoin="round"/>
<path fill-rule="evenodd" clip-rule="evenodd" d="M9.57051 8.78778C9.57051 9.88496 8.6812 10.7755 7.58285 10.7755C6.48564 10.7755 5.59521 9.88496 5.59521 8.78778C5.59521 7.68943 6.48564 6.80014 7.58285 6.80014C8.6812 6.80014 9.57051 7.68943 9.57051 8.78778Z" stroke="#828282" stroke-width="1.75" stroke-linecap="round" stroke-linejoin="round"/>
<path d="M19.166 1.63559V7.30021" stroke="#828282" stroke-width="1.75" stroke-linecap="round" stroke-linejoin="round"/>
<path d="M22.0002 4.47021H16.3345" stroke="#828282" stroke-width="1.75" stroke-linecap="round" stroke-linejoin="round"/>
</svg>
