<svg width="17" height="14" viewBox="0 0 17 14" fill="none" xmlns="http://www.w3.org/2000/svg">
<path d="M16.1515 0.946947C15.3939 1.31816 14.6515 1.46892 13.8788 1.69695C13.0296 0.738613 11.7705 0.685583 10.5606 1.13861C9.35076 1.59164 8.55834 2.69922 8.57576 3.96968V4.72725C6.11743 4.79013 3.92803 3.67043 2.51515 1.69695C2.51515 1.69695 -0.653031 7.32801 5.54546 10.0303C4.12727 10.975 2.71288 11.6121 1 11.5454C3.50606 12.9113 6.23712 13.381 8.60152 12.6947C11.3136 11.9068 13.5424 9.87423 14.3977 6.82953C14.6529 5.90352 14.7796 4.94684 14.7743 3.98634C14.7727 3.79771 15.9182 1.88634 16.1515 0.946189V0.946947Z" stroke="#FF9800" stroke-width="0.909091" stroke-linecap="round" stroke-linejoin="round"/>
</svg>
